<svg width="429" height="603" viewBox="0 0 429 603" fill="none" xmlns="http://www.w3.org/2000/svg">
<path d="M0 50C0 22.3858 22.3858 0 50 0H379C406.614 0 429 22.3858 429 50V456.839C429 475.389 418.73 492.415 402.32 501.067L232.931 590.382C218 598.255 200.104 598.063 185.346 589.871L25.7356 501.284C9.85238 492.468 0 475.732 0 457.566V50Z" fill="#F5DD00"/>
<path d="M302 50H355C368.807 50 380 61.1929 380 75V179" stroke="#FF0000" stroke-opacity="0.25" stroke-width="25" stroke-linecap="round"/>
<path d="M43.5 366.5V436.447C43.5 445.443 48.3325 453.744 56.1544 458.186L205.5 543" stroke="#FF0000" stroke-opacity="0.25" stroke-width="25" stroke-linecap="round"/>
</svg>
